<svg xmlns="http://www.w3.org/2000/svg" width="280mm" height="198mm" viewBox="0 0 280 198"><g fill="none" stroke="#24221e" stroke-width="0.3"><polyline points="171.144515,87.029513 171.742484,87.237401 172.339867,87.446967 172.936487,87.658693 173.532237,87.872857 174.127071,88.089553 174.720999,88.308720 175.314082,88.530162 175.906424,88.753578 176.498165,88.978582 177.089470,89.204730 177.680522,89.431538 178.271512,89.658506 178.862633,89.885135 179.454067,90.110944 180.102811,90.358023 180.751694,90.604739 181.400712,90.851097 182.049913,91.096973 182.699381,91.342142 183.349637,91.585214 184.001535,91.823847 184.656127,92.054989 185.314507,92.275109 185.977655,92.480418 186.646289,92.667086 187.320754,92.831447 188.000950,92.970193 188.686323,93.080554 189.375912,93.160457 190.068440,93.208644 190.762455,93.224760 191.456487,93.209390 192.149208,93.164062 192.839577,93.091207 193.420462,93.008520 193.998491,92.907791 194.573851,92.792791 195.147123,92.667796 195.719187,92.537384 196.291084,92.406247 196.863864,92.279015 197.438425,92.160088 198.015399,92.053483 198.595072,91.962686 199.177358,91.890529 199.761839,91.839090 200.347839,91.809626 200.934537,91.802544 201.521089,91.817411 202.106748,91.853011 202.690960,91.907426 203.273422,91.978150 203.854109,92.062214 204.433253,92.156322 205.011293,92.256986 205.588803,92.360654 206.166399,92.463836 206.744662,92.563214 207.324060,92.655746 208.002581,92.754286 208.682640,92.841583 209.364224,92.916040 210.047217,92.976222 210.731395,93.020957 211.416443,93.049414 212.101982,93.061164 212.787613,93.057910 213.473134,93.045196 214.158653,93.032354 214.844292,93.032153 215.529372,93.059831 216.211258,93.131471 216.841997,93.254533 217.455786,93.444896 218.041489,93.709335 218.586791,94.049365 219.080005,94.461332 219.511846,94.937240 219.876848,95.466153 220.174200,96.035852 220.407972,96.634456 220.586832,97.251695 220.723336,97.879662 220.832893,98.512886 220.932482,99.147754 221.039276,99.781450 221.169343,100.410781 221.336545,101.031280 221.551669,101.636836 221.821842,102.219915 222.150291,102.772271 222.536491,103.285910 222.976686,103.754102 223.464698,104.172217 223.992885,104.538268 224.553091,104.853140 225.137454,105.120527 225.718761,105.339062 226.311029,105.525859 226.909791,105.690660 227.511517,105.844287 228.113203,105.998067 228.711870,106.163212 229.304090,106.350162 229.885675,106.567955 230.451615,106.823663 230.996505,107.121606 231.515958,107.461966 232.007465,107.841564 232.471088,108.254758 232.909798,108.694313 233.362573,109.186944 233.804868,109.689005 234.247564,110.190713 234.701706,110.682084 235.177157,111.152868 235.681437,111.592632 236.218941,111.991104 236.790623,112.338768 237.394171,112.627595 238.024599,112.851762 238.675153,113.008190 239.338356,113.096803 240.007032,113.120517 240.675185,113.084974 241.338625,112.998153 241.995321,112.869932 242.645438,112.711695 243.280088,112.533044 243.910766,112.340842 244.540614,112.145937 245.173213,111.960154 245.811659,111.795584 246.457685,111.663878 247.111058,111.575557 247.769336,111.538578 248.428368,111.557894 249.058406,111.634063 249.678805,111.767681 250.285029,111.955410 250.874235,112.191178 251.445916,112.466731 252.002208,112.772163 252.547774,113.096366 253.089228,113.427391 253.634103,113.752754 254.189531,114.059754 254.760939,114.335873 255.406191,114.591701 256.071381,114.789993 256.752959,114.921329 257.444669,114.979083 258.138525,114.960076 258.826086,114.864908 259.499822,114.697942 260.154398,114.467013 260.787747,114.182995 261.401799,113.859363 262.002614,113.511772 262.599540,113.157544 263.203232,112.814976 263.823088,112.502604 264.464959,112.238409 265.129766,112.038834 265.813208,111.917576 266.506530,111.884371 267.198075,111.944066 267.875309,112.096224 268.526946,112.335320 269.144795,112.651643 269.633397,112.975000 270.087500,113.345247 270.508486,113.752755 270.900576,114.188138 271.270459,114.642536 271.626682,115.107722 271.978804,115.576018 272.336444,116.040116 272.708323,116.492883 273.101470,116.927311 273.520669,117.336657 274.057640,117.796594 274.624555,118.219072 275.219283,118.601405 275.838823,118.942068 276.479504,119.241081 277.137272,119.500351 277.807990,119.723999 278.487683,119.918672 279.172661,120.093846 279.859404,120.261967 280.000000,120.298143"/>
<polyline points="181.107674,80.905888 188.647712,85.137900 189.130062,85.407452 189.547976,85.633771 189.916979,85.818504 190.252595,85.963297 190.570348,86.069798 190.885763,86.139652 191.214365,86.174506 191.571678,86.176008 191.973226,86.145804 192.434534,86.085541 192.971126,85.996864 193.598527,85.881422 194.332262,85.740860 201.971966,84.269271 210.529865,83.643871 211.076161,83.602549 211.542312,83.558691 211.938927,83.503127 212.276616,83.426688 212.565988,83.320206 212.817652,83.174511 213.042219,82.980434 213.250297,82.728807 213.452496,82.410460 213.659425,82.016225 213.881694,81.536932 214.129912,80.963413 214.414689,80.286499 216.386113,75.581790 216.597410,75.078294 216.781652,74.643891 216.946780,74.264162 217.100732,73.924684 217.251450,73.611037 217.406875,73.308799 217.574945,73.003550 217.763603,72.680867 217.980787,72.326330 218.234439,71.925517 218.532499,71.464007 218.882906,70.927379 219.293603,70.301211 223.571108,63.783549"/>
<polyline points="207.202821,92.636383 225.365335,103.703271 226.527404,104.410057 227.535334,105.015172 228.427597,105.534304 229.242664,105.983144 230.019006,106.377381 230.795094,106.732705 231.609399,107.064807 232.500393,107.389376 233.506546,107.722102 234.666330,108.078674 236.018215,108.474783 237.600674,108.926119 239.452176,109.448370 258.731387,114.878016 254.308075,125.125778 254.022430,125.777305 253.758521,126.317009 253.491176,126.741744 253.195224,127.048361 252.845491,127.233714 252.416807,127.294655 251.883998,127.228036 251.221893,127.030711 250.405319,126.699532 249.409105,126.231352 248.208079,125.623024 246.777068,124.871399 245.090901,123.973331 233.374368,117.721091 232.119826,117.053185 231.033508,116.484350 230.075652,116.002667 229.206496,115.596220 228.386279,115.253092 227.575238,114.961367 226.733611,114.709127 225.821636,114.484455 224.799552,114.275435 223.627597,114.070150 222.266009,113.856682 220.675026,113.623116 218.814885,113.357534 199.447663,110.603239 221.024746,129.633894"/>
<polyline points="194.920279,92.717257 215.127517,98.619296 216.419676,98.997218 217.535942,99.326848 218.514713,99.622484 219.394389,99.898425 220.213368,100.168968 221.010050,100.448411 221.822835,100.751053 222.690122,101.091191 223.650309,101.483123 224.741797,101.941148 226.002985,102.479564 227.472271,103.112668 229.188055,103.854759 247.049284,111.583908 243.811417,120.530213 243.601558,121.098385 243.403010,121.565269 243.192748,121.924448 242.947746,122.169509 242.644978,122.294036 242.261418,122.291614 241.774041,122.155827 241.159821,121.880262 240.395733,121.458501 239.458750,120.884131 238.325848,120.150737 236.974000,119.251902 235.380181,118.181213 224.304448,110.730292 223.118098,109.935204 222.088240,109.263390 221.174756,108.705859 220.337527,108.253619 219.536435,107.897680 218.731362,107.629051 217.882189,107.438740 216.948798,107.317756 215.891071,107.257108 214.668888,107.247806 213.242132,107.280857 211.570684,107.347272 209.614426,107.438058 189.243498,108.402337 214.014906,120.133824"/>
<polyline points="188.750425,93.087981 212.198220,94.249074 213.696438,94.325713 214.983594,94.406601 216.097284,94.508301 217.075103,94.647375 217.954649,94.840385 218.773518,95.103893 219.569305,95.454462 220.379607,95.908654 221.242020,96.483032 222.194141,97.194157 223.273566,98.058593 224.517890,99.092901 225.964711,100.313643 241.016960,113.040247 237.785793,121.504544 237.576936,122.040997 237.382767,122.474976 237.183710,122.793769 236.960189,122.984664 236.692626,123.034948 236.361445,122.931909 235.947068,122.662835 235.429919,122.215014 234.790422,121.575734 234.008998,120.732282 233.066072,119.671947 231.942067,118.382017 230.617405,116.849778 221.412604,106.191041 220.425358,105.054362 219.560389,104.098319 218.776578,103.314341 218.032803,102.693855 217.287943,102.228288 216.500878,101.909070 215.630486,101.727627 214.635647,101.675389 213.475240,101.743782 212.108144,101.924234 210.493237,102.208174 208.589401,102.587029 206.355512,103.052228 183.085392,107.927982 212.068362,113.283302"/>
<polyline points="182.790127,91.376064 206.355951,92.662410 207.861707,92.747002 209.155313,92.834415 210.274532,92.941112 211.257123,93.083553 212.140849,93.278203 212.963471,93.541523 213.762749,93.889975 214.576445,94.340022 215.442320,94.908125 216.398135,95.610748 217.481652,96.464353 218.730631,97.485402 220.182833,98.690357 235.291029,111.252171 232.620817,118.305291 232.447672,118.751906 232.283392,119.110730 232.108522,119.368770 231.903611,119.513031 231.649203,119.530519 231.325848,119.408241 230.914090,119.133202 230.394478,118.692409 229.747559,118.072868 228.953878,117.261584 227.993983,116.245564 226.848421,115.011813 225.497739,113.547339 216.111541,103.360969 215.104992,102.274484 214.224044,101.359547 213.427680,100.606884 212.674884,100.007219 211.924637,99.551276 211.135923,99.229782 210.267724,99.033461 209.279024,98.953038 208.128804,98.979238 206.776047,99.102785 205.179737,99.314406 203.298856,99.604825 201.092387,99.964767 178.108586,103.741922 207.499819,108.618465"/>
<polyline points="239.183990,120.706262 233.411030,125.331344 233.043369,125.628970 232.734922,125.897577 232.483680,126.157193 232.287636,126.427846 232.144782,126.729566 232.053110,127.082381 232.010613,127.506319 232.015283,128.021409 232.065111,128.647680 232.158091,129.405160 232.292215,130.313878 232.465474,131.393862 232.675861,132.665141 234.877680,145.913762 215.554869,152.377883"/>
<polyline points="232.287636,126.427846 232.039309,126.940022 231.750353,127.389948 231.422325,127.780103 231.056783,128.112970 230.655286,128.391028 230.219391,128.616759 229.750656,128.792643 229.250640,128.921161 228.720900,129.004795 228.162994,129.046025 227.578481,129.047332 226.968917,129.011197 226.335862,128.940101 225.680874,128.836524 225.005509,128.702948 224.311327,128.541853 223.599884,128.355721 222.872740,128.147032 222.131452,127.918267 221.377578,127.671907 220.612676,127.410433 219.838305,127.136326 219.056021,126.852066 218.267383,126.560135 217.473950,126.263014 216.677278,125.963182 215.878927,125.663122 215.080453,125.365314 214.283415,125.072239 213.489372,124.786378 212.699880,124.510211 211.916498,124.246220 211.140784,123.996886 210.374296,123.764688 209.618592,123.552110 208.875229,123.361630 208.145767,123.195730 207.431762,123.056892 206.734773,122.947595"/>
<polyline points="232.158091,129.405160 234.316378,131.474457 234.454422,131.607858 234.573868,131.729719 234.679005,131.850445 234.774124,131.980442 234.863513,132.130113 234.951464,132.309864 235.042266,132.530100 235.140208,132.801225 235.249581,133.133645 235.374674,133.537763 235.519778,134.023986 235.689181,134.602717 235.887175,135.284362 237.948524,142.388699 240.166578,137.083442"/>
<polyline points="239.183990,120.706262 233.127155,125.558774 232.741416,125.871035 232.417801,126.152850 232.154205,126.425232 231.948521,126.709194 231.798642,127.025751 231.702463,127.395914 231.657876,127.840699 231.662775,128.381118 231.715054,129.038184 231.812606,129.832912 231.953325,130.786314 232.135104,131.919405 232.355836,133.253197 234.665925,147.153293 214.392952,153.935276"/>
<polyline points="231.948521,126.709194 231.688168,127.246113 231.385548,127.716858 231.042283,128.124064 230.659991,128.470368 230.240295,128.758406 229.784814,128.990816 229.295169,129.170233 228.772981,129.299295 228.219869,129.380636 227.637456,129.416895 227.027360,129.410707 226.391203,129.364709 225.730606,129.281537 225.047188,129.163829 224.342571,129.014219 223.618375,128.835345 222.876220,128.629844 222.117728,128.400351 221.344518,128.149503 220.558211,127.879937 219.760428,127.594289 218.952789,127.295196 218.136914,126.985294 217.314426,126.667219 216.486943,126.343608 215.656086,126.017098 214.823477,125.690325 213.990735,125.365925 213.159481,125.046535 212.331336,124.734791 211.507920,124.433331 210.690853,124.144789 209.881757,123.871803 209.082252,123.617010 208.293959,123.383045 207.518497,123.172546 206.757487,122.988148 206.012551,122.832488 205.285308,122.708203"/>
<polyline points="231.812606,129.832912 233.400872,133.621214 233.502360,133.864849 233.589572,134.083847 233.665079,134.293747 233.731448,134.510088 233.791249,134.748406 233.847048,135.024240 233.901417,135.353129 233.956922,135.750610 234.016132,136.232221 234.081616,136.813500 234.155943,137.509986 234.241681,138.337215 234.341398,139.310728 235.378865,149.455826 237.705988,143.889693"/>
<polyline points="226.524519,112.223789 220.455213,115.390252 220.068130,115.594701 219.740004,115.783397 219.465428,115.974165 219.238995,116.184832 219.055298,116.433225 218.908931,116.737168 218.794486,117.114489 218.706557,117.583014 218.639737,118.160569 218.588619,118.864980 218.547797,119.714073 218.511863,120.725675 218.475410,121.917611 218.103937,134.341021 199.402628,136.752716"/>
<polyline points="219.238995,116.184832 218.918790,116.610040 218.566823,116.980420 218.184299,117.298156 217.772422,117.565429 217.332397,117.784421 216.865430,117.957315 216.372724,118.086294 215.855484,118.173539 215.314916,118.221233 214.752223,118.231558 214.168610,118.206696 213.565282,118.148831 212.943444,118.060143 212.304301,117.942816 211.649057,117.799032 210.978916,117.630972 210.295084,117.440820 209.598766,117.230758 208.891165,117.002968 208.173487,116.759632 207.446936,116.502932 206.712717,116.235052 205.972035,115.958172 205.226094,115.674476 204.476099,115.386146 203.723255,115.095365 202.968766,114.804313 202.213837,114.515175 201.459673,114.230131 200.707479,113.951365 199.958459,113.681058 199.213818,113.421394 198.474760,113.174554 197.742491,112.942720 197.018215,112.728076 196.303136,112.532802 195.598460,112.359082 194.905390,112.209098 194.225133,112.085033"/>
<polyline points="218.588619,118.864980 220.083185,121.271506 220.178576,121.426400 220.259879,121.566392 220.328858,121.702102 220.387274,121.844149 220.436889,122.003152 220.479466,122.189731 220.516768,122.414504 220.550555,122.688090 220.582591,123.021109 220.614638,123.424181 220.648457,123.907923 220.685813,124.482956 220.728465,125.159898 221.171071,132.214726 224.134317,127.794575"/>
<polyline points="233.376228,105.667121 237.341715,102.570019 237.594289,102.370687 237.806345,102.190593 237.979416,102.016132 238.115038,101.833699 238.214744,101.629687 238.280069,101.390492 238.312547,101.102507 238.313713,100.752127 238.285101,100.325747 238.228246,99.809760 238.144681,99.190562 238.035942,98.454547 237.903563,97.588108 236.517669,88.558452 249.714635,84.324740"/>
<polyline points="238.115038,101.833699 238.289847,101.483757 238.494866,101.169331 238.728937,100.888999 238.990900,100.641340 239.279595,100.424932 239.593864,100.238354 239.932545,100.080184 240.294481,99.949001 240.678511,99.843384 241.083476,99.761910 241.508216,99.703159 241.951572,99.665709 242.412385,99.648138 242.889494,99.649025 243.381741,99.666949 243.887966,99.700488 244.407009,99.748221 244.937711,99.808725 245.478912,99.880581 246.029453,99.962365 246.588175,100.052657 247.153917,100.150036 247.725521,100.253079 248.301827,100.360365 248.881675,100.470473 249.463906,100.581982 250.047360,100.693470 250.630878,100.803514 251.213300,100.910695 251.793467,101.013590 252.370220,101.110779 252.942398,101.200838 253.508843,101.282348 254.068395,101.353886 254.619894,101.414032 255.162180,101.461363 255.694095,101.494458 256.214479,101.511896 256.722172,101.512255"/>
<polyline points="238.228246,99.809760 236.784045,98.369515 236.691684,98.276682 236.611827,98.191967 236.541660,98.108216 236.478373,98.018274 236.419154,97.914987 236.361191,97.791199 236.301670,97.639756 236.237782,97.453502 236.166713,97.225283 236.085652,96.947945 235.991787,96.614332 235.882305,96.217290 235.754395,95.749664 234.422770,90.875930 232.869432,94.465622"/>
<polyline points="236.302099,107.906987 238.701516,103.611892 238.854700,103.337145 238.985511,103.099212 239.097023,102.889360 239.192307,102.698855 239.274438,102.518961 239.346487,102.340946 239.411528,102.156075 239.472632,101.955614 239.532874,101.730829 239.595325,101.472987 239.663059,101.173352 239.739149,100.823191 239.826666,100.413769 240.735777,96.150967 241.663382,91.501875 241.723369,91.205422 241.779308,90.954449 241.836990,90.745134 241.902203,90.573655 241.980738,90.436187 242.078383,90.328911 242.200928,90.248002 242.354163,90.189638 242.543877,90.149997 242.775860,90.125256 243.055901,90.111593 243.389790,90.105186 243.783316,90.102211 246.517880,90.085927 246.810427,90.084792 247.062181,90.087536 247.280892,90.097752 247.474309,90.119030 247.650183,90.154961 247.816262,90.209137 247.980297,90.285149 248.150036,90.386588 248.333231,90.517045 248.537630,90.680111 248.770984,90.879377 249.041041,91.118434 249.355551,91.400874 252.628354,94.345813 258.699843,94.956161"/>
<polyline points="236.733633,100.776181 240.052860,98.587106 240.265158,98.447280 240.448854,98.327436 240.610546,98.224344 240.756832,98.134772 240.894310,98.055488 241.029579,97.983261 241.169235,97.914859 241.319878,97.847050 241.488104,97.776604 241.680512,97.700287 241.903700,97.614869 242.164265,97.517119 242.468806,97.403804 245.639443,96.225411 248.586003,93.775877 248.774542,93.619932 248.938151,93.489461 249.083148,93.383961 249.215851,93.302928 249.342578,93.245860 249.469646,93.212253 249.603375,93.201605 249.750080,93.213411 249.916082,93.247170 250.107696,93.302378 250.331242,93.378531 250.593036,93.475128 250.899397,93.591664 253.026160,94.404034 253.253469,94.491398 253.447760,94.569372 253.613772,94.642989 253.756239,94.717281 253.879898,94.797279 253.989487,94.888016 254.089740,94.994522 254.185394,95.121831 254.281187,95.274973 254.381854,95.458980 254.492131,95.678885 254.616755,95.939719 254.760462,96.246514 256.253802,99.443428 257.363503,104.492959"/>
<polyline points="233.572182,105.817131 236.390839,102.552424 236.571304,102.343942 236.728589,102.165564 236.869404,102.012774 237.000458,101.881053 237.128463,101.765885 237.260128,101.662752 237.402164,101.567137 237.561282,101.474523 237.744191,101.380393 237.957602,101.280229 238.208226,101.169514 238.502773,101.043731 238.847953,100.898363 242.443026,99.387289 246.694412,98.441150 246.966298,98.380828 247.201358,98.329818 247.407850,98.287398 247.594032,98.252846 247.768162,98.225439 247.938500,98.204457 248.113303,98.189178 248.300830,98.178878 248.509340,98.172838 248.747090,98.170334 249.022340,98.170645 249.343347,98.173049 249.718370,98.176824 252.321174,98.203960 252.599786,98.206872 252.840537,98.209432 253.051769,98.211768 253.241825,98.214011 253.419047,98.216289 253.591777,98.218733 253.768358,98.221471 253.957132,98.224633 254.166442,98.228348 254.404630,98.232745 254.680038,98.237954 255.001009,98.244105 255.375886,98.251326 259.278414,98.326553 264.740500,96.886340"/>
<polyline points="242.658844,105.312156 245.531667,105.567401 245.715380,105.583681 245.874144,105.597491 246.013475,105.609065 246.138888,105.618640 246.255900,105.626453 246.370027,105.632738 246.486786,105.637731 246.611692,105.641669 246.750262,105.644788 246.908011,105.647324 247.090457,105.649511 247.303114,105.651587 247.551499,105.653787 250.137256,105.676367 253.005487,105.460246 253.188724,105.446100 253.345954,105.431879 253.481590,105.415215 253.600040,105.393743 253.705716,105.365095 253.803029,105.326903 253.896389,105.276802 253.990208,105.212423 254.088895,105.131400 254.196862,105.031366 254.318519,104.909954 254.458277,104.764796 254.620547,104.593527 255.745789,103.403219 255.866231,103.275824 255.970263,103.165860 256.061448,103.069627 256.143352,102.983425 256.219537,102.903557 256.293569,102.826321 256.369012,102.748020 256.449429,102.664953 256.538386,102.573422 256.639445,102.469727 256.756172,102.350169 256.892131,102.211048 257.050885,102.048666 258.703493,100.358389 260.766715,102.982266"/>
<polyline points="239.698166,110.506805 239.731652,104.962010 239.733713,104.607438 239.735000,104.301079 239.735093,104.032348 239.733573,103.790655 239.730022,103.565415 239.724020,103.346039 239.715148,103.121941 239.702986,102.882533 239.687116,102.617228 239.667119,102.315439 239.642574,101.966578 239.613064,101.560057 239.578169,101.085291 239.214281,96.142926 241.515129,91.699796 241.662635,91.416206 241.792372,91.174457 241.910972,90.969271 242.025069,90.795372 242.141292,90.647482 242.266275,90.520324 242.406648,90.408620 242.569045,90.307093 242.760096,90.210465 242.986433,90.113460 243.254689,90.010799 243.571495,89.897206 243.943483,89.767403 246.527031,88.869329 246.803508,88.774185 247.041961,88.698034 247.250227,88.643927 247.436143,88.614915 247.607548,88.614050 247.772278,88.644381 247.938171,88.708962 248.113065,88.810841 248.304796,88.953071 248.521203,89.138702 248.770122,89.370786 249.059392,89.652373 249.396850,89.986514 252.909272,93.472621 259.005660,97.056828"/>
<polyline points="238.296222,101.972403 242.351399,103.350610 242.610663,103.438870 242.834357,103.515913 243.029915,103.585137 243.204769,103.649942 243.366355,103.713726 243.522105,103.779886 243.679454,103.851823 243.845835,103.932934 244.028682,104.026619 244.235430,104.136275 244.473511,104.265301 244.750359,104.417096 245.073409,104.595059 248.435989,106.448658 252.175839,108.544263 252.415007,108.678250 252.621748,108.793894 252.803299,108.895075 252.966894,108.985672 253.119766,109.069566 253.269152,109.150638 253.422285,109.232766 253.586401,109.319831 253.768733,109.415713 253.976517,109.524293 254.216987,109.649450 254.497378,109.795064 254.824924,109.965016 257.098196,111.144385 257.341558,111.270527 257.551998,111.378903 257.736946,111.472685 257.903835,111.555040 258.060095,111.629141 258.213159,111.698158 258.370457,111.765259 258.539421,111.833616 258.727483,111.906398 258.942073,111.986777 259.190624,112.077921 259.480566,112.183001 259.819331,112.305188 263.346120,113.576385 266.315622,109.460680"/>
<polyline points="250.694748,118.925109 253.126616,112.763656 253.280867,112.369544 253.406421,112.028372 253.500369,111.727738 253.559802,111.455241 253.581812,111.198480 253.563490,110.945053 253.501928,110.682560 253.394217,110.398599 253.237450,110.080769 253.028717,109.716668 252.765111,109.293896 252.443722,108.800050 252.061642,108.222731 248.074388,102.211958 247.669844,95.327368 247.645389,94.888869 247.632937,94.520728 247.640201,94.220294 247.674893,93.984916 247.744727,93.811943 247.857416,93.698723 248.020672,93.642605 248.242208,93.640938 248.529737,93.691070 248.890972,93.790351 249.333626,93.936130 249.865412,94.125754 250.494042,94.356572 254.864095,95.967522 255.331946,96.139907 255.736630,96.288520 256.092557,96.418187 256.414135,96.533732 256.715773,96.639982 257.011879,96.741761 257.316861,96.843895 257.645129,96.951208 258.011092,97.068527 258.429156,97.200675 258.913733,97.352479 259.479229,97.528764 260.140054,97.734354 267.019872,99.874149 276.630093,103.445044"/>
<polyline points="236.207091,100.373093 239.227156,95.724684 239.420679,95.429034 239.590330,95.183405 239.744268,94.988524 239.890649,94.845119 240.037629,94.753917 240.193365,94.715643 240.366014,94.731024 240.563732,94.800788 240.794676,94.925660 241.067003,95.106368 241.388870,95.343638 241.768432,95.638198 242.213846,95.990772 246.853746,99.673532 252.126257,103.796756 252.463243,104.060428 252.753335,104.288279 253.005551,104.488213 253.228911,104.668134 253.432435,104.835947 253.625141,104.999555 253.816049,105.166864 254.014178,105.345777 254.228547,105.544199 254.468176,105.770034 254.742084,106.031186 255.059290,106.335561 255.428814,106.691062 257.992425,109.158285 258.266976,109.422407 258.505039,109.650778 258.715635,109.851444 258.907784,110.032451 259.090506,110.201845 259.272821,110.367671 259.463750,110.537976 259.672313,110.720805 259.907530,110.924204 260.178422,111.156220 260.494009,111.424898 260.863311,111.738284 261.295348,112.104424 265.793965,115.916178 274.378704,115.538468"/></g></svg>