<svg xmlns="http://www.w3.org/2000/svg" width="280mm" height="198mm" viewBox="0 0 280 198"><g fill="none" stroke="#24221e" stroke-width="0.3"><polyline points="85.434348,62.602170 84.803231,62.607422 84.172197,62.618953 83.541362,62.638578 82.910878,62.667331 82.280896,62.705529 81.651533,62.752859 81.022847,62.808452 80.394812,62.870976 79.767319,62.938723 79.140184,63.009705 78.639105,63.063548 78.137306,63.110200 77.634638,63.146321 77.131210,63.169533 76.627324,63.178364 76.123398,63.172176 75.619877,63.151073 75.117149,63.115799 74.615493,63.067629 74.115041,63.008246 73.615770,62.939630 73.117522,62.863944 72.619823,62.784734 72.121949,62.706627 71.623115,62.634906 71.122710,62.575125 70.511138,62.522169 69.897901,62.494513 69.284048,62.497322 68.671354,62.535132 68.062270,62.611563 67.459770,62.729109 66.867105,62.889024 66.287533,63.091311 65.724028,63.334800 65.179036,63.617301 64.654276,63.935816 64.150629,64.286762 63.695092,64.651127 63.264606,65.044773 62.859959,65.464935 62.480668,65.908120 62.125015,66.370491 61.790194,66.848163 61.472512,67.337400 61.167642,67.834722 60.870891,68.336931 60.577454,68.841085 60.282660,69.344445 59.982170,69.844426 59.672155,70.338557 59.349413,70.824472 59.011453,71.299928 58.656527,71.762856 58.283615,72.211423 57.892382,72.644103 57.483093,73.059744 57.056513,73.457620 56.613798,73.837460 56.156376,74.199455 55.685848,74.544243 55.184447,74.875978 54.665662,75.179807 54.130137,75.453056 53.579609,75.694653 53.016426,75.905070 52.443144,76.086174 51.862220,76.241023 51.275815,76.373611 50.685706,76.488603 50.093294,76.591067 49.499666,76.686232 48.905701,76.779272 48.312183,76.875121 47.719899,76.978322 47.129833,77.093527 46.543505,77.226458 45.963137,77.383377 45.391793,77.570507 44.833458,77.793469 44.292975,78.056774 43.775853,78.363425 43.287927,78.714680 42.834954,79.109984 42.448403,79.533759 42.118950,80.003297 41.856133,80.513134 41.666562,81.054492 41.553356,81.616801 41.516099,82.189180 41.551239,82.761693 41.652797,83.326221 41.813182,83.876932 42.023985,84.410381 42.276629,84.925335 42.562848,85.422411 42.874969,85.903646 43.206057,86.372033 43.549938,86.831110 43.901158,87.284597 44.254915,87.736108 44.606986,88.188934 44.953665,88.645903 45.291722,89.109285 45.618387,89.580768 45.931339,90.061462 46.228710,90.551949 46.509082,91.052346 46.771488,91.562394 47.015395,92.081543 47.240680,92.609040 47.443174,93.137735 47.625021,93.673883 47.786085,94.216636 47.926794,94.765020 48.048052,95.318029 48.151153,95.874709 48.237682,96.434205 48.309432,96.995788 48.368323,97.558864 48.415998,98.123000 48.452858,98.687946 48.478237,99.253525 48.490567,99.819538 48.487566,100.385677 48.466420,100.951430 48.423975,101.515984 48.356941,102.078149 48.262093,102.636295 48.136473,103.188329 47.977576,103.731721 47.783512,104.263569 47.553125,104.780719 47.286061,105.279918 46.982783,105.757982 46.644525,106.211970 46.273203,106.639337 45.885866,107.013451 45.464597,107.348897 45.011962,107.640638 44.532208,107.885234 44.030552,108.081023 43.512521,108.228112 42.983398,108.328209 42.447822,108.384334 41.909556,108.400489 41.371389,108.381309 40.835165,108.331762 40.301886,108.256895 39.771869,108.161640 39.244916,108.050681 38.720483,107.928365 38.197831,107.798649 37.676152,107.665075 37.154663,107.530759 36.632675,107.398396 36.109632,107.270265 35.585129,107.148248 35.058913,107.033845 34.530870,106.928198 34.000945,106.832431 33.398838,106.745864 32.793105,106.690058 32.185049,106.672866 31.577392,106.700778 30.974120,106.778819 30.380235,106.910449 29.801411,107.097507 29.243626,107.340205 28.712769,107.637221 28.214291,107.985856 27.752898,108.382268 27.332330,108.821757 26.955228,109.299063 26.623082,109.808676 26.336262,110.345110 26.094111,110.903133 25.895086,111.477951 25.736914,112.065325 25.616773,112.661642 25.531451,113.263926 25.477500,113.869828 25.451372,114.477565 25.449519,115.085860 25.468489,115.693863 25.504980,116.301065 25.548805,116.846552 25.599594,117.391435 25.654007,117.935967 25.709336,118.480408 25.762551,119.025059 25.810142,119.570230 25.848296,120.116143 25.873058,120.662827 25.880487,121.210021 25.866808,121.757094 25.810723,122.478335 25.708380,123.194477 25.553498,123.901121 25.341873,124.592893 25.071416,125.263853 24.742074,125.907955 24.355659,126.519525 23.915554,127.093669 23.426356,127.626603 22.893476,128.115861 22.322744,128.560382 21.720046,128.960493 21.091026,129.317799 20.440867,129.635017 19.774149,129.915767 19.094785,130.164360 18.406022,130.385583 17.710490,130.584502 17.010286,130.766295 16.307078,130.936094 15.602210,131.098868 14.897088,131.260535 14.193461,131.428590 13.493587,131.611650 12.800489,131.818893 12.330228,131.984641 11.870861,132.178549 11.426413,132.404568 11.001296,132.665133 10.600015,132.961093 10.226826,133.291772 9.885405,133.655159 9.578586,134.048200 9.308185,134.467129 9.074933,134.907824 8.878508,135.366120 8.717645,135.838076 8.590295,136.320155 8.493809,136.809347 8.425128,137.303211 8.380955,137.799867 8.357901,138.297950 8.352610,138.796539 8.361850,139.295070 8.382576,139.793255 8.411984,140.291004 8.447533,140.788352 8.486965,141.285407 8.533217,141.842109 8.579617,142.398800 8.624568,142.955609 8.666781,143.512632 8.705258,144.069926 8.739264,144.627511 8.768300,145.185376 8.792078,145.743490 8.810495,146.301807 8.823601,146.860274 8.831578,147.418838 8.834711,147.977450 8.844315,148.656025 8.868654,149.334231 8.914194,150.011345 8.985195,150.686263 9.083974,151.357679 9.211187,152.024292 9.366107,152.685016 9.546915,153.339130 9.750965,153.986371 9.975039,154.626954 10.215554,155.261548 10.468741,155.891193 10.730786,156.517203 10.997909,157.141063 11.266370,157.764349 11.532452,158.388654 11.792426,159.015527"/>
<polyline points="91.539513,113.610808 91.113527,113.189540 90.691279,112.764526 90.273621,112.335000 89.860133,111.901458 89.449314,111.465387 89.038801,111.029027 88.625620,110.595192 88.206466,110.167126 87.777988,109.748393 87.337069,109.342781 86.881070,108.954199 86.408025,108.586560 85.916767,108.243637 85.406979,107.928919 84.879175,107.645451 84.334606,107.395701 83.775183,107.181279 83.203306,107.002709 82.621569,106.859488 82.032513,106.750196 81.438446,106.672643 80.841313,106.624028 80.242643,106.601110 79.643536,106.600361 79.044690,106.618106 78.446466,106.650641 77.848953,106.694330 77.262595,106.750916 76.677868,106.822414 76.095176,106.908951 75.514776,107.009715 74.936721,107.123164 74.360849,107.247213 73.786798,107.379440 73.214363,107.518493 72.643508,107.663896 72.074369,107.815878 71.507243,107.975208 70.942577,108.143046 70.380953,108.320801 69.823084,108.510008 69.269791,108.712209 68.721996,108.928861 68.180687,109.161246 67.646894,109.410410 67.121647,109.677117 66.605931,109.961820 66.100647,110.264649 65.606561,110.585423 65.124268,110.923670 64.653914,111.278333 64.195180,111.647901 63.747305,112.030557 63.309146,112.424301 62.879247,112.827048 62.432466,113.257871 61.989323,113.692436 61.547403,114.128245 61.104482,114.563036 60.658591,114.994781 60.208051,115.421672 59.751505,115.842134 59.287920,116.254822 58.816579,116.658629 58.337066,117.052697 57.849329,117.436539 57.354003,117.810537 56.876106,118.156164 56.391666,118.492557 55.901825,118.821037 55.408045,119.143565 54.911986,119.462577 54.415433,119.780819 53.920242,120.101177 53.428315,120.426524 52.941572,120.759577 52.461931,121.102779 51.991274,121.458201 51.531407,121.827479 51.084015,122.211775 50.650601,122.611768 50.232434,123.027676 49.830498,123.459290 49.445455,123.906039 49.077613,124.367055 48.726920,124.841246 48.392970,125.327374 48.094322,125.783529 47.801078,126.243175 47.509377,126.703803 47.216170,127.163474 46.919172,127.620704 46.616981,128.074519 46.309061,128.524467 45.995557,128.970541 45.677131,129.413116 45.354819,129.852869 45.029908,130.290704 44.703835,130.727675 44.378108,131.164905 44.054241,131.603514 43.733704,132.044561 43.417879,132.488996 43.108034,132.937620 42.805291,133.391067 42.510608,133.849792 42.224766,134.314079 41.948360,134.784044 41.681793,135.259659 41.425245,135.740752 41.177947,136.226664 40.938328,136.716409 40.704165,137.208786 40.472736,137.702454 40.219367,138.270389 39.981217,138.844871 39.760378,139.426227 39.556697,140.013814 39.368080,140.606410 39.190829,141.202503 39.020013,141.800472 38.849873,142.398634 38.674229,142.995202 38.486868,143.588196 38.281910,144.175339 38.054116,144.754006 37.799146,145.321223 37.513732,145.873748 37.195778,146.408210 36.844369,146.921296 36.459709,147.409949 36.042984,147.871561 35.596176,148.304120 35.121855,148.706320 34.622630,149.077156 34.101059,149.415843 33.559587,149.721709 32.951282,150.011265 32.322626,150.253486 31.676270,150.443492 31.015923,150.576990 30.346199,150.650120 29.672555,150.659225 29.001413,150.600510 28.340548,150.469604"/>
<polyline points="11.792426,159.015527 11.868912,158.628892 11.945771,158.242331 12.024146,157.856075 12.105655,157.470468 12.192263,157.085974 12.286149,156.703192 12.389583,156.322878 12.504798,155.945967 12.633878,155.573576 12.778660,155.207005 12.940655,154.847708 13.120985,154.497254 13.320355,154.157272 13.539043,153.829381 13.776909,153.515126 14.033437,153.215911 14.307780,152.932939 14.598823,152.667175 14.905249,152.419305 15.225613,152.189733 15.558399,151.978568 15.985127,151.748666 16.429205,151.554383 16.888710,151.400088 17.360432,151.288599 17.840435,151.221153 18.324574,151.197480 18.808940,151.215959 19.290189,151.273841 19.765772,151.367506 20.234043,151.492700 20.694291,151.644765 21.146684,151.818810 21.592171,152.009840 22.032339,152.212829 22.469238,152.422760 22.905201,152.634626 23.342639,152.843431 23.783624,153.044638 24.229804,153.234045 24.682350,153.407691 25.028940,153.517967 25.382960,153.601360 25.743087,153.652285 26.106521,153.666467 26.469337,153.640990 26.826881,153.574302 26.973973,153.535463 27.105962,153.477735 27.223951,153.402569 27.329041,153.311414 27.422334,153.205720 27.504932,153.086937 27.577937,152.956513 27.642451,152.815899 27.699576,152.666545 27.750414,152.509899 27.796066,152.347413 27.837635,152.180534 27.876223,152.010713 27.912931,151.839400 27.948862,151.668043 27.985117,151.498094 28.022798,151.331001 28.063008,151.168214 28.106848,151.011182 28.155420,150.861356 28.209826,150.720184 28.271168,150.589117 28.340548,150.469604"/>
<polyline points="11.792426,159.015527 11.880719,158.533951 11.984150,158.055398 12.108960,157.581971 12.260318,157.116352 12.442209,156.661790 12.657342,156.221985 12.907112,155.800884 13.191624,155.402433 13.509802,155.030313 13.859552,154.687697 14.237987,154.377055 14.641674,154.100021 15.066897,153.857337 15.509894,153.648855 15.967058,153.473607 16.403287,153.345071 16.848550,153.252564 17.299829,153.196308 17.754105,153.175090 18.208734,153.186472 18.661692,153.227048 19.111698,153.292712 19.558226,153.378911 20.001426,153.480843 20.441991,153.593624 20.880983,153.712380 21.319651,153.832330 21.759254,153.948805 22.200896,154.057293 22.645387,154.153440 23.093129,154.233090 23.464649,154.282023 23.838218,154.311485 24.212862,154.319427 24.587292,154.304460 24.960019,154.265784 25.329467,154.203098 25.694056,154.116514 26.052259,154.006460 26.402637,153.873581 26.743842,153.718660 27.074599,153.542532 27.393669,153.346023 27.699788,153.129892 27.991591,152.894790 28.267503,152.641228 28.525614,152.369566 28.577891,152.303947 28.615539,152.233738 28.639864,152.159373 28.652173,152.081288 28.653773,151.999918 28.645969,151.915699 28.630068,151.829064 28.607377,151.740450 28.579202,151.650292 28.546850,151.559025 28.511627,151.467083 28.474839,151.374902 28.437792,151.282918 28.401794,151.191565 28.368151,151.101279 28.338169,151.012494 28.313155,150.925647 28.294414,150.841171 28.283254,150.759503 28.280981,150.681077 28.288902,150.606328 28.308322,150.535692 28.340548,150.469604"/>
<polyline points="11.792426,159.015527 11.801984,158.549439 11.811922,158.083360 11.823416,157.617316 11.838251,157.151367 11.858774,156.685633 11.887813,156.220353 11.928561,155.755952 11.984437,155.293127 12.058909,154.832928 12.155307,154.376818 12.276643,153.926700 12.425444,153.484900 12.603613,153.054104 12.812341,152.637257 13.052064,152.237430 13.322458,151.857672 13.622493,151.500870 13.950515,151.169614 14.304354,150.866090 14.681459,150.592009 15.079026,150.348554 15.494128,150.136377 15.923838,149.955605 16.365325,149.805880 16.815941,149.686406 17.273279,149.596012 17.735215,149.533209 18.144629,149.503535 18.555102,149.499935 18.964992,149.522089 19.372789,149.569012 19.777237,149.639178 20.177409,149.730624 20.572764,149.841058 20.963152,149.967933 21.348815,150.108522 21.730348,150.259958 22.108663,150.419264 22.484924,150.583364 22.860475,150.749080 23.236516,150.913683 23.614067,151.074791 23.993964,151.230287 24.376858,151.378248 24.763227,151.516884 25.153382,151.644477 25.565827,151.762205 25.702109,151.794767 25.841748,151.816048 25.984062,151.826506 26.128367,151.826600 26.273981,151.816789 26.420222,151.797533 26.566406,151.769289 26.711851,151.732517 26.855873,151.687676 26.997792,151.635224 27.136922,151.575621 27.272583,151.509325 27.404090,151.436796 27.530762,151.358491 27.651915,151.274871 27.766867,151.186394 27.874935,151.093519 27.975437,150.996704 28.067689,150.896409 28.151009,150.793093 28.224714,150.687214 28.288121,150.579232 28.340548,150.469604"/>
<polyline points="11.792426,159.015527 11.822591,158.602598 11.864238,158.190668 11.922299,157.780730 12.001107,157.374270 12.104303,156.973307 12.234760,156.580368 12.394497,156.198394 12.584630,155.830603 12.805352,155.480314 13.055967,155.150750 13.334973,154.844848 13.724444,154.483032 14.140609,154.152269 14.579499,153.852313 15.037633,153.582663 15.511945,153.342609 15.999729,153.131267 16.498587,152.947589 17.006407,152.790370 17.521329,152.658260 18.041736,152.549751 18.566241,152.463190 19.093674,152.396770 19.494584,152.357624 19.896160,152.326031 20.298053,152.298780 20.700046,152.273032 21.101972,152.246268 21.503667,152.216231 21.904928,152.180865 22.305484,152.138253 22.704971,152.086571 23.102903,152.024028 23.498642,151.948850 23.891366,151.859249 24.280038,151.753440 24.663665,151.630594 25.041407,151.490694 25.412670,151.334409 25.777187,151.162977 26.135082,150.978120 26.486936,150.782009 26.833855,150.577294 27.177591,150.367277 27.520758,150.156334 27.867232,149.950866 28.209889,149.770929 28.236397,149.762018 28.258683,149.764694 28.277081,149.777812 28.291923,149.800227 28.303542,149.830794 28.312270,149.868367 28.318439,149.911803 28.322383,149.959955 28.324433,150.011679 28.324922,150.065829 28.324183,150.121261 28.322549,150.176830 28.320351,150.231390 28.317922,150.283796 28.315595,150.332904 28.313703,150.377567 28.312577,150.416642 28.312551,150.448984 28.313956,150.473446 28.317126,150.488884 28.322393,150.494153 28.330090,150.488108 28.340548,150.469604"/>
<polyline points="28.340548,150.469604 28.578373,149.982296 28.822967,149.498351 29.076336,149.018941 29.339727,148.544963 29.613749,148.077050 29.898491,147.615583 30.193631,147.160696 30.498531,146.712293 30.812326,146.270068 31.133995,145.833538 31.462418,145.402066 31.796344,144.974838 32.134368,144.550846 32.504174,144.087372 32.870461,143.621114 33.230029,143.149654 33.580123,142.671116 33.918394,142.184150 34.242886,141.687895 34.552020,141.181931 34.844587,140.666210 35.119743,140.140993 35.376989,139.606775 35.616157,139.064223 35.837383,138.514112 36.041080,137.957271 36.227898,137.394543 36.398695,136.826748 36.554496,136.254655 36.696455,135.678972 36.825821,135.100328 36.943909,134.519278 37.052062,133.936297 37.151630,133.351789 37.243949,132.766092 37.322981,132.234119 37.398968,131.701701 37.473365,131.169060 37.547430,130.636372 37.622232,130.103787 37.698667,129.571434 37.777463,129.039425 37.859201,128.507860 37.944064,127.976786 38.031896,127.446194 38.122276,126.916030 38.214591,126.386200 38.308090,125.856578 38.401939,125.327017 38.495258,124.797363 38.587161,124.267461 38.676779,123.737168 38.763289,123.206359 38.845925,122.674933 38.923995,122.142818 38.996892,121.609969 39.064097,121.076372 39.125183,120.542040 39.179816,120.007010 39.238926,119.330107 39.286770,118.652314 39.322366,117.973769 39.345064,117.294669 39.354510,116.615256 39.350610,115.935789 39.333499,115.256525 39.303503,114.577709 39.261110,113.899554 39.206944,113.222238 39.141730,112.545895 39.066278,111.870619 38.981453,111.196456 38.888158,110.523412 38.787317,109.851458 38.679860,109.180530 38.566705,108.510539 38.448754,107.841377 38.326877,107.172918 38.201908,106.505030 38.074638,105.837577 37.945808,105.170423 37.816108,104.503438 37.686174,103.836498 37.556582,103.169492 37.427853,102.502318 37.300448,101.834891 37.174768,101.167137 37.059650,100.583698 36.934468,100.002336 36.795765,99.424051 36.641367,98.849757 36.470179,98.280243 36.281138,97.716402 36.073130,97.159280 35.845033,96.610077 35.595768,96.070152 35.290208,95.470359 34.961430,94.882973 34.609386,94.309228 34.233885,93.750554 33.834698,93.208550 33.411646,92.684961 32.964683,92.181630 32.493963,91.700444 31.999892,91.243265 31.483162,90.811863 30.944758,90.407835 30.385950,90.032533 29.808264,89.686994 29.213432,89.371885 28.603336,89.087454 27.979935,88.833507 27.345198,88.609395 26.701035,88.414018 26.049239,88.245852 25.391435,88.102980 24.729048,87.983139 24.063282,87.883772 23.395116,87.802089 22.725315,87.735125 22.049062,87.679045 21.372192,87.630993 20.695004,87.587640 20.017723,87.545773 19.340541,87.502340 18.663656,87.454491 17.987304,87.399621 17.311776,87.335398 16.637427,87.259797 15.964673,87.171115 15.293981,87.067994 14.625847,86.949421 13.960774,86.814734 13.299242,86.663609 12.641681,86.496054 11.988923,86.310663 11.342481,86.104326 10.704586,85.872912 10.078203,85.611938 9.466993,85.317175 8.875206,84.985136 8.307496,84.613426 7.768682,84.200943 7.263458,83.747941 6.796111,83.255956 6.370266,82.727639 5.988686,82.166516 5.653146,81.576706 5.355795,80.948274 5.103349,80.300497 4.893635,79.637651 4.723952,78.963446 4.591185,78.281011 4.491917,77.592905 4.422529,76.901146 4.379278,76.207263 4.358363,75.512348 4.355974,74.817122 4.368336,74.122002 4.391731,73.427166 4.422519,72.732618 4.457158,72.038251 4.492219,71.343906 4.524395,70.649421 4.550528,69.954683 4.568133,69.259676 4.577504,68.564509 4.581262,67.869289 4.583874,67.174064 4.591131,66.478872 4.609615,65.783888 4.646188,65.089621 4.707527,64.397102 4.799732,63.708014 4.906657,63.158416 5.051775,62.617648 5.238411,62.089768 5.467847,61.579034 5.739566,61.089484 6.051582,60.624580 6.400794,60.186926 6.783363,59.778110 7.195059,59.398641 7.631554,59.047981 8.088655,58.724641 8.562465,58.426322 9.049475,58.150077 9.546600,57.892479 10.051168,57.649783 10.560876,57.418076 11.073726,57.193410 11.587955,56.971919 12.101966,56.749922 12.614267,56.524008 13.123431,56.291107 13.628064,56.048547 14.126751,55.793986 14.617998,55.525348 15.100260,55.240895 15.571979,54.939281 16.031635,54.619584 16.477801,54.281314 16.906545,53.929882 17.322633,53.563552 17.726438,53.183725 18.118355,52.791644 18.498814,52.388435 18.868279,51.975128 19.227256,51.552681 19.576299,51.121988 19.916002,50.683892 20.247001,50.239183 20.569968,49.788606 20.885602,49.332864 21.194626,48.872613 21.497772,48.408469 21.795775,47.941007 22.089365,47.470761 22.353660,47.035637 22.611789,46.596828 22.862850,46.153937 23.105252,45.706248 23.336804,45.252851 23.554806,44.792787 23.756157,44.325195 23.937473,43.849476 24.095228,43.365433 24.225921,42.873392 24.326239,42.374273 24.393239,41.869599 24.424496,41.361458 24.418240,40.852395 24.373437,40.345269 24.289829,39.843080 24.167916,39.348791 24.008902,38.865160 23.760869,38.268011 23.468740,37.691151 23.135239,37.137179 22.763647,36.608004 22.357609,36.104774 21.920955,35.627867 21.457541,35.176918 20.971123,34.750885 20.465258,34.348134 19.943248,33.966542 19.454760,33.634252 18.957495,33.315248 18.453826,33.006453 17.945801,32.704877 17.435201,32.407684 16.923585,32.112242 16.412336,31.816166 15.902687,31.517345 15.395744,31.213955 14.892499,30.904469 14.393836,30.587654 13.900529,30.262562 13.413352,29.928354 12.933101,29.584266 12.460625,29.229579 11.996856,28.863581 11.542859,28.485529 11.099902,28.094600 10.669547,27.689839 10.253805,27.270083 9.855379,26.833857 9.478076,26.379237 9.127510,25.903695 8.812181,25.404090"/>
<polyline points="8.812181,25.404090 8.537713,24.959971 8.270635,24.511368 8.013294,24.057110 7.767278,23.596620 7.533496,23.129801 7.312247,22.656912 7.103295,22.178462 6.905949,21.695111 6.719138,21.207590 6.541505,20.716651 6.371478,20.223025 6.207359,19.727405 6.047128,19.230514 5.887908,18.733298 5.726268,18.236863 5.558511,17.742462 5.380933,17.251503 5.190049,16.765562 4.982775,16.286384 4.756557,15.815852 4.509462,15.355940 4.240218,14.908634 3.904013,14.421101 3.533805,13.958857 3.128613,13.526952 2.689346,13.129753 2.218400,12.770681 1.719221,12.452023 1.195867,12.174853 0.652619,11.939046 0.093659,11.743379 0.000000,11.717506"/>
<polyline points="28.340548,150.469604 28.579646,149.972137 28.813776,149.472313 29.041351,148.969470 29.261270,148.463232 29.472845,147.953450 29.675753,147.440157 29.869974,146.923514 30.055749,146.403775 30.233534,145.881249 30.403958,145.356275 30.561973,144.841727 30.710359,144.324319 30.847227,143.803746 30.970247,143.279728 31.076649,142.752085 31.163245,142.220832 31.226485,141.686295 31.262559,141.149240 31.267565,140.610999 31.237719,140.073562 31.169601,139.539625 31.060403,139.012553 30.908155,138.496269 30.711876,137.995067 30.471668,137.513373 30.188706,137.055485 29.865158,136.625315 29.504029,136.226173 29.108959,135.860593 28.683999,135.530233 28.233380,135.235833 27.761302,134.977238 27.271757,134.753465 26.801466,134.568290 26.324540,134.400944 25.843725,134.245124 25.360979,134.095390 24.877771,133.947156 24.395270,133.796637 23.914464,133.640790 23.436223,133.477238 22.961329,133.304208 22.490481,133.120456 22.024285,132.925201 21.563247,132.718061 21.107759,132.498985 20.658090,132.268202 20.214381,132.026157 19.776644,131.773472 19.310960,131.492242 18.849788,131.203670 18.392217,130.909424 17.937388,130.610957 17.484511,130.309535 17.032873,130.006260 16.581840,129.702087 16.130856,129.397840 15.679121,129.094711 15.225443,128.794497 14.768330,128.499539 14.306101,128.212665 13.837022,127.937134 13.205127,127.592268 12.560178,127.272480 11.900813,126.983582 11.226457,126.731654 10.537545,126.522789 9.835672,126.362796 9.123626,126.256898 8.405313,126.209450 7.685577,126.223706 6.969931,126.301651 6.264255,126.443935 5.574464,126.649877 4.906206,126.917562 4.264597,127.244001 3.654017,127.625336 3.077970,128.057069 2.539010,128.534297 2.038729,129.051928 1.625751,129.542698 1.243255,130.057580 0.888577,130.592004 0.558843,131.142169 0.251090,131.704925 0.000000,132.203006"/>
<polyline points="24.789041,152.529337 24.371002,152.219573 23.943584,151.922883 23.503574,151.645212 23.048773,151.392494 22.578032,151.170877 22.091353,150.986884 21.590045,150.847596 21.077073,150.760592 20.557482,150.733472 20.038725,150.773496 19.530947,150.886950 19.047025,151.078077 18.602086,151.347781 18.212603,151.692764 17.894867,152.104777 17.663370,152.570737 17.524693,153.067233 17.478084,153.580621 17.521662,154.094275 17.650697,154.593364 17.858375,155.065179 18.136379,155.499291 18.475462,155.887572 18.865952,156.224109 19.298229,156.504959 19.763166,156.727608 20.252223,156.890588 20.757406,156.993202 21.271181,157.035330 21.786367,157.017338 22.296044,156.940084 22.995979,156.738009 23.660003,156.438317 24.270841,156.041302 24.811046,155.552507 25.264145,154.982029 25.615877,154.344042 25.855078,153.655910 25.974356,152.937219 25.970491,152.208708 25.844325,151.491195 25.600679,150.804624 25.247738,150.167305 24.796518,149.595340 24.260202,149.102280 23.653412,148.699107 22.991706,148.394329 22.291176,148.194328 21.568287,148.103911 20.840126,148.126812 20.124948,148.265607 19.442728,148.521182 18.815033,148.890968 18.336893,149.299691 17.936904,149.785160 17.626947,150.332516 17.416079,150.925142 17.310012,151.545160 17.311268,152.174183 17.419163,152.793885 17.629939,153.386544 17.937178,153.935430 18.332008,154.425104 18.803122,154.841905 19.337010,155.174525 19.918519,155.414355 20.464912,155.547996 21.024498,155.605174 21.586832,155.591542 22.143830,155.513063 22.689267,155.375575 23.218256,155.184325 23.726820,154.943976 24.211586,154.658656 24.669397,154.331831 25.096925,153.966284 25.490528,153.564436 25.846063,153.128546 26.158962,152.661106 26.424257,152.165098 26.636760,151.644284 26.791406,151.103460 26.883437,150.548541 26.908869,149.986617 26.864818,149.425845 26.749807,148.875230 26.564060,148.344284 26.309569,147.842647 25.990135,147.379649 25.611084,146.964045 25.179278,146.603562 24.702895,146.304455 24.198138,146.084866 23.664787,145.948718 23.116272,145.902565 22.567749,145.948624 22.034429,146.084895 21.530216,146.305730 21.066801,146.602791 20.653193,146.966010 20.295725,147.384597 19.998225,147.847731 19.762544,148.345178 19.588989,148.867555 19.476749,149.406444 19.424322,149.954396 19.429806,150.504822 19.491190,151.051842 19.606560,151.590070 19.774189,152.114379 19.996937,152.651063 20.259299,153.169535 20.558029,153.667939 20.892377,154.143184 21.263573,154.590242 21.673597,155.001977 22.123739,155.369427 22.613362,155.682341 23.138675,155.930723 23.692714,156.105902 24.265915,156.201225 24.546787,156.709908 24.868889,157.193536 25.276062,157.659398 25.755070,158.051020 26.300621,158.342896 26.895515,158.512949 27.513339,158.546274 28.122444,158.437613 28.690350,158.192054 29.187686,157.823985 29.591092,157.354858 29.872408,156.819432 30.027221,156.234750 30.050840,155.630380 29.946815,155.034562 29.725351,154.471735 29.401122,153.961152 28.991182,153.516439 28.513067,153.145998 27.983503,152.853795 27.417581,152.640366 26.828354,152.503868 26.226804,152.440959 25.621996,152.446251 25.020865,152.513044 24.428244,152.633962 23.847065,152.801446 23.278634,153.008102 22.722942,153.246905 22.178951,153.511280 21.644840,153.795086 21.118196,154.092519 20.664614,154.348893 20.205647,154.595499"/>
<polyline points="8.124818,159.260059 8.812897,159.259373 9.500933,159.251648 10.188781,159.233801 10.876168,159.202926 11.562663,159.156259 12.247667,159.091265 12.930369,159.005407 13.609731,158.896228 14.284468,158.761382 14.952961,158.598375 15.613246,158.404783 16.262784,158.177730 16.898351,157.914085 17.515778,157.610380 18.109671,157.262896 18.672837,156.867550 19.142469,156.460862 19.559870,156.000723 19.909708,155.487339 20.175859,154.925989 20.343077,154.327667 20.399160,153.708955 20.337311,153.090792 20.157682,152.496079 19.867043,151.947007 19.477734,151.462870 19.006040,151.058574 18.470292,150.744050 17.889193,150.524338 17.280485,150.400138 16.605318,150.355209 15.929437,150.387680 15.260085,150.486862 14.602119,150.644817 13.959397,150.856425 13.335832,151.119171 12.735964,151.432264 12.165229,151.795762 11.630125,152.209927 11.138223,152.674580 10.698062,153.188513 10.318724,153.748845 10.009330,154.350630 9.778408,154.986668 9.633078,155.647537 9.578676,156.322007 9.618161,156.997514 9.751731,157.660860 9.976889,158.298962 10.288630,158.899534 10.679746,159.451709 11.141497,159.946335 11.664063,160.376212 12.237080,160.736102 12.850113,161.022561 13.492969,161.233761 14.155946,161.369155 14.675418,161.413653 15.196562,161.398141 15.712586,161.323640 16.217135,161.192255 16.704426,161.006838 17.169323,160.770824 17.607374,160.488082 18.014799,160.162757 18.388466,159.799158 18.725811,159.401628 19.024788,158.974492 19.283764,158.521985 19.501466,158.048237 19.676930,157.557274 19.809442,157.053020 19.898509,156.539309 20.345499,156.196709 20.775740,155.833297 21.176932,155.438051 21.536677,155.004739 21.842812,154.532027 22.084115,154.023158 22.251157,153.485317 22.337053,152.928723 22.337914,152.365541 22.253025,151.808792 22.084668,151.271362 21.837875,150.765133 21.519782,150.300383 21.138863,149.885563 20.660994,149.503706 20.127899,149.203736 19.552391,148.996458 18.950134,148.889410 18.338445,148.886407 17.735162,148.987514 17.157698,149.189277 16.622303,149.485124 16.143564,149.865890 15.734179,150.320397 15.381395,150.860280 15.111354,151.445949 14.927432,152.064094 14.833466,152.702139 14.833920,153.347066 14.933466,153.984264 15.135648,154.596679 15.440584,155.164962 15.843176,155.668797 16.296069,156.052801 16.816413,156.338832 17.383873,156.513648 17.974933,156.570388 18.565465,156.508390 19.132708,156.332870 19.656751,156.053675 20.121447,155.684042 20.514759,155.239207 20.828611,154.735155 21.058583,154.187721 21.203218,153.611829 21.263446,153.021114 21.242052,152.427722 21.143027,151.842260 20.971216,151.273883 20.731995,150.730427 20.430932,150.218633 20.073700,149.744337 19.665977,149.312674 19.213487,148.928194 18.722038,148.594954 18.197542,148.316610 17.646119,148.096372 17.074118,147.937043 16.431977,147.834992 15.782266,147.809784 15.134348,147.864194 14.498303,147.999124 13.884437,148.213431 13.302898,148.504245 12.763323,148.867037 12.274392,149.295646 11.843420,149.782495 11.476195,150.319063 11.176966,150.896316 10.948406,151.505019 10.791988,152.136123 10.708002,152.780876 10.695887,153.430962 10.754428,154.078521 10.881753,154.716132 11.075730,155.336722 11.333871,155.933482 11.653300,156.499807 12.030852,157.029159 12.462854,157.515095 12.944945,157.951383 13.534550,158.373391 14.170388,158.721867 14.844753,158.988244 15.548026,159.164686 16.268669,159.244676 16.993421,159.223243 17.707526,159.097628 18.395141,158.867605 19.039943,158.536011 19.626300,158.109500 20.140981,157.598787 20.574003,157.017223 20.919223,156.379612 21.174101,155.700817 21.339106,154.994773 21.416996,154.273900 21.412563,153.548845 21.332023,152.828263 21.182491,152.118781 20.971598,151.425060 20.707345,150.749860 20.398505,150.093854 20.058361,149.453521 19.731129,148.806494 19.460457,148.133841 19.284339,147.430487"/>
<polyline points="19.265254,150.880191 18.606992,150.965233 17.954395,151.086300 17.314712,151.263352 16.699650,151.512830 16.125164,151.845255 15.610341,152.264180 15.175411,152.765554 14.839492,153.338005 14.618142,153.963740 14.521614,154.620416 14.553779,155.283369 14.712137,155.927933 14.988416,156.531432 15.369850,157.074616 15.840594,157.542528 16.383259,157.924699 16.980148,158.214981 17.636771,158.429281 18.313957,158.565279 19.001418,158.632167 19.692102,158.637939 20.381076,158.589033 21.064692,158.490311 21.740042,158.345467 22.404521,158.156935 23.055507,157.926079 23.678485,157.649283 24.274531,157.318452 24.835230,156.930723 25.351497,156.485541 25.813908,155.984646 26.213144,155.432080 26.540398,154.834064 26.787836,154.198853 26.948933,153.536458 27.018840,152.858349 26.994571,152.177079 26.875235,151.505902 26.710542,151.012719 26.473607,150.549884 26.168417,150.128918 25.801339,149.760668 25.380830,149.454848 24.916954,149.219958 24.421288,149.062894 23.906654,148.988697 23.386831,149.000413 22.876285,149.098887 22.347923,149.298302 21.861828,149.585782 21.433756,149.954138 21.078637,150.393255 20.809924,150.889970 20.638880,151.428186 20.573843,151.989170 20.618887,152.552112 20.773226,153.095355 21.031074,153.597795 21.382025,154.040251 21.811834,154.406580 22.303518,154.684391 22.838432,154.865498 23.397406,154.946000 23.961783,154.925718 24.514064,154.807741 25.038358,154.597863 25.520656,154.304058 25.948950,153.935960 26.313270,153.504447 26.605626,153.021269 26.819960,152.498781 26.952030,151.949700 27.005429,151.383867 26.982937,150.815965 26.888126,150.255582 26.724454,149.711312 26.495366,149.191180 26.204459,148.702927 25.855739,148.254136 25.454034,147.852077 25.005124,147.503510 24.515783,147.214438 23.993691,146.989852 23.447231,146.833648 22.885297,146.748510 22.317087,146.736001 21.751964,146.796449 21.199259,146.928872 20.704095,147.122448 20.241837,147.385080 19.823514,147.713203 19.459409,148.100612 19.158445,148.538881 18.927769,149.017887 18.772454,149.526351 18.695436,150.052399 18.697540,150.584052 18.777657,151.109637 18.932953,151.618107 19.159131,152.099254 19.450675,152.543844 19.800979,152.943776 20.202575,153.292171 20.647268,153.583559 21.126426,153.813920 21.631247,153.980695 22.268976,154.111779 22.917035,154.174237 23.568092,154.171853 24.215963,154.107472 24.854997,153.982908 25.479609,153.799219 26.083836,153.556751 26.660863,153.255219 27.202466,152.893907 27.698699,152.472440 28.138084,151.992000 28.508302,151.456445 28.797142,150.872961 28.993650,150.252264 29.089217,149.608254 29.078381,148.957283 28.959353,148.317194 28.735138,147.705958 28.412949,147.140207 28.003301,146.634173 27.518969,146.199083 26.976895,145.854730"/>
<polyline points="14.850891,154.917246 14.272271,154.812489 13.692864,154.712176 13.112266,154.619009 12.529953,154.537235 11.945495,154.472556 11.358835,154.432490 10.770835,154.426947 10.184230,154.467807 9.604853,154.568296 9.042496,154.740137 8.511018,154.991744 8.026974,155.325625 7.607846,155.738064 7.270382,156.219617 7.028649,156.755658 6.892292,157.327656 6.865771,157.915084 6.948249,158.497298 7.134107,159.055179 7.414000,159.572320 7.776004,160.035707 8.206813,160.435931 8.692748,160.767053 9.220606,161.026168 9.847679,161.233262 10.496615,161.355697 11.155849,161.394656 11.814917,161.352965 12.464567,161.234381 13.096682,161.043228 13.704122,160.784146 14.280598,160.461991 14.820650,160.081923 15.319390,159.649064 15.772352,159.168509 16.179291,158.628431 16.519756,158.044165 16.785288,157.422251 16.968760,156.771389 17.064685,156.102000 17.069436,155.425789 16.981338,154.755325 16.800713,154.103667 16.529831,153.484065 16.186270,152.915238 15.774947,152.393307 15.304008,151.924463 14.780621,151.514994 14.211622,151.171720 13.604162,150.902294 12.966445,150.715435 12.308734,150.620492 11.644232,150.626470 10.989591,150.740673 10.364584,150.966428 9.790565,151.301241 9.258441,151.763642 8.823346,152.318317 8.501319,152.945429 8.303263,153.621998 8.234529,154.323601 8.295009,155.025963 8.479768,155.706284 8.779911,156.344159 9.183332,156.922279 9.675912,157.426597 10.242361,157.846248 10.866740,158.173543 11.532945,158.404067 12.225411,158.536212 12.929522,158.570840 13.631931,158.510906 14.320843,158.361332 14.986099,158.128083 15.619032,157.817651 16.212249,157.436778 16.759378,156.992233 17.254941,156.490846 17.694117,155.939398 18.001889,155.459273 18.260482,154.950970 18.468294,154.419880 18.623660,153.871151 18.724820,153.309894 18.769948,152.741382 18.757205,152.171224 18.684811,151.605538 18.551252,151.051097 18.355546,150.515428 18.097554,150.006819 17.778344,149.534223 17.400527,149.107026 16.978769,148.755966 16.504267,148.480338 15.988555,148.292815 15.447405,148.201820 14.898731,148.210759 14.360571,148.318030"/>
<polyline points="22.550924,147.564494 21.939912,147.310722 21.325101,147.066298 20.704104,146.838045 20.074782,146.633865 19.435729,146.462555 18.786697,146.334131 18.129361,146.258992 17.467856,146.246913 16.808917,146.306373 16.161800,146.444126 15.537861,146.664207 14.949728,146.967251 14.410347,147.350401 13.932165,147.807651 13.526188,148.330067 13.201181,148.906354 12.963308,149.523729 12.816109,150.168763 12.760448,150.828033 12.794667,151.488764 12.887701,152.008702 13.040115,152.514430 13.245602,153.001016 13.498203,153.464895 13.792523,153.903492 14.123695,154.314972 14.487401,154.697998 14.879901,155.051458 15.297892,155.374374 15.738434,155.665775 16.198883,155.924574 16.676762,156.149569 17.169663,156.339411 17.675162,156.492581 18.190720,156.607432 18.713593,156.682234 19.261536,156.711765 19.809745,156.687682 20.352348,156.605858 20.882322,156.463589 21.391775,156.259699 21.872255,155.994647 22.315044,155.670531 22.711456,155.291097 23.053146,154.861723 23.332372,154.389340 23.542258,153.882328 23.677093,153.350414 23.732550,152.804485 23.696035,152.077751 23.546969,151.365532 23.285592,150.686446 22.915382,150.060011 22.443647,149.505988 21.881791,149.043609 21.245505,148.690598 20.554704,148.461973 19.833015,148.369010 19.107026,148.418151 18.405145,148.610088 17.756210,148.939269 17.187867,149.393650 16.724886,149.955009 16.387601,150.599769 16.190517,151.300222 16.141383,152.026212 16.240938,152.747020 16.483072,153.433203 16.855526,154.058307 17.341221,154.600133 17.870398,155.003898 18.463937,155.305171 19.100899,155.498388 19.761198,155.582412 20.426438,155.559835 21.080485,155.436239 21.709805,155.219421 22.303515,154.918484 22.853221,154.543149 23.352807,154.103299 23.798180,153.608630 24.186942,153.068336 24.517925,152.490838 24.790932,151.883778 25.006543,151.254044 25.165960,150.607793 25.270583,149.950444 25.321918,149.286803 25.321550,148.621181 25.271918,147.894313 25.178647,147.171748 25.045630,146.455434 24.875331,145.747057 24.668997,145.048325 24.426601,144.361271 24.147180,143.688423 23.829114,143.032959 23.470189,142.398946 23.068032,141.791435 22.620331,141.216662 22.125297,140.682115 21.582112,140.196574 21.144821,139.884107 20.672750,139.627186 20.170688,139.435368 19.646365,139.317283 19.110202,139.280006 18.574926,139.328364 18.054926,139.464232 17.565340,139.685962 17.120895,139.988168 16.734874,140.362130 16.418514,140.796613 16.180467,141.278478 16.026554,141.793424 15.959834,142.326724 15.980717,142.863774 16.087142,143.390588 16.274964,143.894158 16.631041,144.513595 17.086890,145.063772 17.631219,145.526587 18.248653,145.886126 18.920390,146.129564 19.625004,146.247932 20.339404,146.236706 21.039870,146.095853 21.703018,145.829906 22.306802,145.447889 22.831463,144.962891 23.260195,144.391330 23.579811,143.752316 23.781303,143.066829 23.859853,142.356672 23.814831,141.643604 23.649692,140.948463 23.371498,140.290359 22.990274,139.686073 22.518417,139.149563 21.969972,138.691631 21.359815,138.319877 20.702971,138.038723 20.013970,137.849591 19.306319,137.750992 18.589084,137.733252 17.873646,137.786986 17.165625,137.902949 16.468577,138.072843 15.784631,138.289539 15.115053,138.547233"/></g></svg>